{
  "accessors": [
    {
      "bufferView": 2,
      "componentType": 5126,
      "count": 1469,
      "max": [
        3.0571703910827637,
        6.249358177185059,
        6.8095221519470215
      ],
      "min": [
        -4.45271635055542,
        -0.12742933630943298,
        -3.416105270385742
      ],
      "type": "VEC3"
    },
    {
      "bufferView": 2,
      "byteOffset": 17628,
      "componentType": 5126,
      "count": 1469,
      "max": [
        0.9999359846115112,
        0.8798672556877136,
        0.9988982081413269
      ],
      "min": [
        -0.9998028874397278,
        -0.72754967212677,
        -0.9968928694725037
      ],
      "type": "VEC3"
    },
    {
      "bufferView": 1,
      "componentType": 5126,
      "count": 1469,
      "max": [
        0.9898279309272766,
        0.9999998807907104
      ],
      "min": [
        0.0,
        0.0
      ],
      "type": "VEC2"
    },
    {
      "bufferView": 1,
      "byteOffset": 11752,
      "componentType": 5126,
      "count": 1469,
      "max": [
        0.9898279309272766,
        0.9999998807907104
      ],
      "min": [
        0.0,
        0.0
      ],
      "type": "VEC2"
    },
    {
      "bufferView": 0,
      "componentType": 5125,
      "count": 1827,
      "type": "SCALAR"
    },
    {
      "bufferView": 2,
      "byteOffset": 35256,
      "componentType": 5126,
      "count": 4924,
      "max": [
        3.247441291809082,
        8.168686866760254,
        6.803926467895508
      ],
      "min": [
        -4.85150671005249,
        -0.047308921813964844,
        -4.093393325805664
      ],
      "type": "VEC3"
    },
    {
      "bufferView": 2,
      "byteOffset": 94344,
      "componentType": 5126,
      "count": 4924,
      "max": [
        1.0,
        1.0,
        1.0
      ],
      "min": [
        -1.0,
        -1.0,
        -1.0
      ],
      "type": "VEC3"
    },
    {
      "bufferView": 1,
      "byteOffset": 23504,
      "componentType": 5126,
      "count": 4924,
      "max": [
        0.9935111999511719,
        0.9949722290039063
      ],
      "min": [
        0.0004879385232925415,
        0.0029816627502441406
      ],
      "type": "VEC2"
    },
    {
      "bufferView": 0,
      "byteOffset": 7308,
      "componentType": 5125,
      "count": 17973,
      "type": "SCALAR"
    },
    {
      "bufferView": 2,
      "byteOffset": 153432,
      "componentType": 5126,
      "count": 4,
      "max": [
        3.426302909851074,
        0.0,
        6.82849645614624
      ],
      "min": [
        -4.814307689666748,
        0.0,
        -4.3827314376831055
      ],
      "type": "VEC3"
    },
    {
      "bufferView": 2,
      "byteOffset": 153480,
      "componentType": 5126,
      "count": 4,
      "max": [
        0.0,
        1.0,
        0.0
      ],
      "min": [
        0.0,
        1.0,
        0.0
      ],
      "type": "VEC3"
    },
    {
      "bufferView": 1,
      "byteOffset": 62896,
      "componentType": 5126,
      "count": 4,
      "max": [
        0.9981882572174072,
        0.9999998807907104
      ],
      "min": [
        0.0018116235733032227,
        -5.960464477539063e-08
      ],
      "type": "VEC2"
    },
    {
      "bufferView": 0,
      "byteOffset": 79200,
      "componentType": 5125,
      "count": 6,
      "type": "SCALAR"
    }
  ],
  "asset": {
    "extras": {
      "author": "glenatron (https://sketchfab.com/glenatron)",
      "license": "CC-BY-NC-4.0 (http://creativecommons.org/licenses/by-nc/4.0/)",
      "source": "https://sketchfab.com/3d-models/painterly-cottage-0772aec70d584c60a27000af5f6c1ef4",
      "title": "Painterly Cottage"
    },
    "generator": "Sketchfab-12.67.0",
    "version": "2.0"
  },
  "bufferViews": [
    {
      "buffer": 0,
      "byteLength": 79224,
      "name": "floatBufferViews",
      "target": 34963
    },
    {
      "buffer": 0,
      "byteLength": 62928,
      "byteOffset": 79224,
      "byteStride": 8,
      "name": "floatBufferViews",
      "target": 34962
    },
    {
      "buffer": 0,
      "byteLength": 153528,
      "byteOffset": 142152,
      "byteStride": 12,
      "name": "floatBufferViews",
      "target": 34962
    }
  ],
  "buffers": [
    {
      "byteLength": 295680,
      "uri": "scene.bin"
    }
  ],
  "extensionsUsed": [
    "KHR_materials_unlit"
  ],
  "images": [
    {
      "uri": "textures/blinn3_baseColor.png"
    },
    {
      "uri": "textures/blinn2_baseColor.png"
    },
    {
      "uri": "textures/blinn4_baseColor.png"
    }
  ],
  "materials": [
    {
      "alphaCutoff": 0.4,
      "alphaMode": "MASK",
      "doubleSided": true,
      "extensions": {
        "KHR_materials_unlit": {}
      },
      "name": "blinn3",
      "pbrMetallicRoughness": {
        "baseColorTexture": {
          "index": 0
        },
        "metallicFactor": 0.0
      }
    },
    {
      "doubleSided": true,
      "extensions": {
        "KHR_materials_unlit": {}
      },
      "name": "blinn2",
      "pbrMetallicRoughness": {
        "baseColorTexture": {
          "index": 1
        },
        "metallicFactor": 0.0
      }
    },
    {
      "doubleSided": true,
      "extensions": {
        "KHR_materials_unlit": {}
      },
      "name": "blinn4",
      "pbrMetallicRoughness": {
        "baseColorTexture": {
          "index": 2
        },
        "metallicFactor": 0.0
      }
    }
  ],
  "meshes": [
    {
      "name": "polySurface55_blinn3_0",
      "primitives": [
        {
          "attributes": {
            "NORMAL": 1,
            "POSITION": 0,
            "TEXCOORD_0": 2,
            "TEXCOORD_1": 3
          },
          "indices": 4,
          "material": 0,
          "mode": 4
        }
      ]
    },
    {
      "name": "polySurface55_blinn2_0",
      "primitives": [
        {
          "attributes": {
            "NORMAL": 6,
            "POSITION": 5,
            "TEXCOORD_0": 7
          },
          "indices": 8,
          "material": 1,
          "mode": 4
        }
      ]
    },
    {
      "name": "polySurface55_blinn4_0",
      "primitives": [
        {
          "attributes": {
            "NORMAL": 10,
            "POSITION": 9,
            "TEXCOORD_0": 11
          },
          "indices": 12,
          "material": 2,
          "mode": 4
        }
      ]
    }
  ],
  "nodes": [
    {
      "children": [
        1
      ],
      "matrix": [
        0.280001699924469,
        0.0,
        0.0,
        0.0,
        0.0,
        6.217286683806589e-17,
        -0.280001699924469,
        0.0,
        0.0,
        0.280001699924469,
        6.217286683806589e-17,
        0.0,
        0.0,
        0.0,
        0.0,
        1.0
      ],
      "name": "Sketchfab_model"
    },
    {
      "children": [
        2
      ],
      "matrix": [
        1.0,
        0.0,
        0.0,
        0.0,
        0.0,
        0.0,
        1.0,
        0.0,
        0.0,
        -1.0,
        0.0,
        0.0,
        0.0,
        0.0,
        0.0,
        1.0
      ],
      "name": "dio.fbx"
    },
    {
      "children": [
        3
      ],
      "name": "RootNode"
    },
    {
      "children": [
        4,
        5,
        6
      ],
      "name": "polySurface55"
    },
    {
      "mesh": 0,
      "name": "polySurface55_blinn3_0"
    },
    {
      "mesh": 1,
      "name": "polySurface55_blinn2_0"
    },
    {
      "mesh": 2,
      "name": "polySurface55_blinn4_0"
    }
  ],
  "samplers": [
    {
      "magFilter": 9729,
      "minFilter": 9987,
      "wrapS": 10497,
      "wrapT": 10497
    }
  ],
  "scene": 0,
  "scenes": [
    {
      "name": "Sketchfab_Scene",
      "nodes": [
        0
      ]
    }
  ],
  "textures": [
    {
      "sampler": 0,
      "source": 0
    },
    {
      "sampler": 0,
      "source": 1
    },
    {
      "sampler": 0,
      "source": 2
    }
  ]
}
